<svg width="1924" height="274" viewBox="0 0 1924 274" fill="none" xmlns="http://www.w3.org/2000/svg">
<g clip-path="url(#clip0_248130_1165)">
<path d="M174.448 146.743L205.125 142.079C210.278 163.061 228.07 174.963 249.421 174.963C268.318 174.963 285.987 165.883 285.987 149.563C285.987 139.747 279.729 133.245 266.354 129.197L220.708 115.698C205.001 111.157 181.32 101.71 181.32 70.5437C181.32 36.4317 209.909 18.6398 245.862 18.8838C282.182 19.2531 307.705 37.7824 315.558 70.5437L283.777 76.0663C279.973 57.4157 263.653 46.9851 245.493 46.4931C227.823 46.1264 212.364 55.3277 212.364 69.0703C212.364 82.201 225.982 86.9876 237.886 90.177L269.543 99.0116C286.722 103.676 316.906 112.51 316.906 147.601C316.906 184.291 283.899 202.697 247.578 202.697C208.926 202.697 179.969 181.467 174.446 146.743H174.448ZM380.426 198.033L326.805 66.4943H357.602L394.659 161.343L430.611 66.4943H460.183L386.315 257.913H358.583L380.424 198.033H380.426ZM463.919 160.609L494.104 155.945C497.05 169.073 508.336 177.049 524.535 177.049C538.645 177.049 546.867 171.037 546.867 161.221C546.867 152.263 543.063 150.055 513.123 142.081C479.87 133.369 468.214 123.43 468.214 103.553C468.214 78.765 488.828 62.8143 520.363 62.8143C551.284 62.8143 572.88 78.153 576.193 101.957L546.008 107.354C544.413 96.0663 535.211 89.3183 520.854 88.4583C506.988 87.8463 497.663 93.2436 497.663 102.078C497.663 109.809 502.816 112.754 533.86 120.606C565.641 128.826 577.176 139.257 577.176 159.871C577.176 186.498 556.561 202.697 522.449 202.697C489.687 202.697 468.338 187.358 463.92 160.609H463.919ZM591.831 132.753C591.953 92.1383 616.863 62.8117 657.109 62.8117C687.172 62.8117 709.504 79.0103 715.762 105.144L686.313 113.12C681.772 98.8876 670.239 90.5423 656.741 90.5423C633.551 90.5423 623.244 108.46 623.121 132.753C623.244 158.03 634.532 174.963 656.741 174.963C672.448 174.963 681.037 167.602 685.577 153.982L715.762 160.731C707.541 187.725 686.313 202.697 656.741 202.697C615.759 202.697 591.953 172.754 591.831 132.753ZM728.184 132.753C728.184 91.1569 754.933 62.8117 794.076 62.8117C834.078 62.8117 860.213 91.7716 860.213 132.753C860.213 174.103 833.709 202.695 794.076 202.695C754.197 202.695 728.184 173.735 728.184 132.753ZM794.076 174.963C817.513 174.963 828.923 157.663 828.923 132.753C828.923 107.108 817.267 90.5423 794.076 90.5423C770.272 90.5423 759.474 107.722 759.474 132.753C759.474 158.522 771.254 174.963 794.076 174.963ZM942.998 90.5423C927.905 90.5423 911.953 98.7649 911.953 130.912V199.014H882.014V66.4943H908.394V81.2183C918.087 69.8063 932.566 62.6903 951.71 62.6903C1000.55 62.6903 1003.86 109.317 1003.86 125.022V199.014H973.919V135.208C973.919 118.888 971.219 90.5423 942.998 90.5423ZM1022.54 160.609L1052.73 155.945C1055.67 169.073 1066.96 177.049 1083.16 177.049C1097.27 177.049 1105.49 171.037 1105.49 161.221C1105.49 152.263 1101.68 150.055 1071.74 142.081C1038.49 133.369 1026.83 123.43 1026.83 103.553C1026.83 78.765 1047.45 62.8143 1078.98 62.8143C1109.91 62.8143 1131.5 78.153 1134.81 101.957L1104.63 107.354C1103.03 96.0663 1093.83 89.3183 1079.47 88.4583C1065.61 87.8463 1056.28 93.2436 1056.28 102.078C1056.28 109.809 1061.44 112.754 1092.48 120.606C1124.26 128.826 1135.8 139.257 1135.8 159.871C1135.8 186.498 1115.18 202.697 1081.07 202.697C1048.31 202.697 1026.96 187.358 1022.54 160.609ZM1211.88 22.3211H1318.26V51.893H1241.45V95.9436H1303.54V125.393H1241.45V199.015H1211.88V22.3211H1211.88ZM1324.21 140.483V66.4943H1354.15V130.301C1354.15 146.619 1356.85 174.963 1385.07 174.963C1400.16 174.963 1416.12 166.743 1416.12 134.594V66.4943H1445.81V199.014H1419.67V184.29C1409.98 195.699 1395.5 202.818 1376.36 202.818C1327.52 202.818 1324.21 156.189 1324.21 140.483H1324.21ZM1490.19 182.694C1484.05 171.285 1485.16 160.117 1485.16 144.902V89.6836H1461.11V66.4943H1485.16V29.6824H1514.61V66.4943H1553.5V89.6836H1514.61V143.183C1514.61 153.737 1514.11 161.957 1517.31 166.987C1523.2 176.803 1536.94 176.681 1553.5 174.229V199.014C1527.25 204.045 1500.5 201.714 1490.19 182.694ZM1571.59 140.483V66.4943H1601.53V130.301C1601.53 146.619 1604.23 174.963 1632.45 174.963C1647.55 174.963 1663.5 166.743 1663.5 134.594V66.4943H1693.19V199.014H1667.06V184.29C1657.36 195.699 1642.89 202.818 1623.74 202.818C1574.9 202.818 1571.59 156.189 1571.59 140.483ZM1722.25 66.4943H1748.39V87.721C1751.7 81.9556 1756.12 76.9236 1761.65 73.489C1771.46 66.7397 1784.96 64.6543 1796.86 66.4957V94.1036C1788.88 91.8956 1777.72 92.5076 1769.5 97.2929C1757.35 103.92 1751.95 116.314 1751.95 131.65V199.015H1722.25V66.4943ZM1807.05 162.694C1807.05 143.429 1816.25 130.301 1837.23 123.06C1851.22 118.521 1871.71 115.698 1894.9 112.262C1893.8 97.0476 1885.82 89.9316 1867.79 89.9316C1855.89 89.9316 1843.24 94.9623 1838.83 108.46L1811.83 99.9916C1818.34 77.6583 1836.62 62.8117 1867.79 62.8117C1891.34 62.8117 1910.12 69.9277 1918.83 87.4743C1923.5 96.8009 1923.86 106.248 1923.86 117.66V199.013H1897.97V181.221C1886.68 195.945 1872.57 202.694 1851.47 202.694C1822.63 202.694 1807.05 184.533 1807.05 162.691V162.694ZM1857.36 179.137C1877.48 179.137 1888.64 166.375 1891.59 157.171C1894.05 151.159 1894.41 142.691 1894.54 136.557C1873.43 139.871 1861.4 141.71 1852.08 144.902C1841.9 148.706 1836.01 153.737 1836.01 162.325C1836.01 172.018 1843.37 179.138 1857.36 179.138V179.137Z" fill="white"/>
<path d="M70.4599 109.781L0.308105 179.934L39.692 219.317L109.844 149.165V70.3983L39.692 0.245155L0.309438 39.6277L70.4599 109.781Z" fill="#FDC306"/>
<path d="M1415.93 238.766H1421.76L1433.09 272.613H1428.74L1426.06 264.691H1411.6L1408.94 272.613H1404.6L1415.93 238.766ZM1424.74 260.767L1418.8 243.162L1412.92 260.767H1424.74ZM1438.87 238.766H1443.1L1460.75 265.209V238.766H1464.98V272.613H1460.75L1443.1 246.145V272.613H1438.87V238.766ZM1486.12 238.766H1490.31V272.613H1486.12V238.766ZM1498.9 238.766H1502.71L1515.49 265.726L1528.21 238.766H1532.06V272.59H1528.09V247.955L1516.6 272.614H1514.36L1502.87 247.955V272.614H1498.9V238.767L1498.9 238.766ZM1540.51 238.766H1553.88C1554.54 238.766 1555.5 238.811 1556.37 238.955C1561.85 239.799 1564.74 244.055 1564.74 249.437C1564.74 254.818 1561.82 259.074 1556.37 259.921C1555.5 260.061 1554.52 260.107 1553.88 260.107H1544.69V272.614H1540.51V238.767V238.766ZM1553.74 256.135C1554.33 256.135 1555.15 256.09 1555.85 255.923C1559.1 255.197 1560.46 252.257 1560.46 249.437C1560.46 246.617 1559.1 243.677 1555.85 242.95C1555.15 242.785 1554.33 242.738 1553.74 242.738H1544.69V256.134H1553.74V256.135ZM1570.74 238.766H1584.12C1584.77 238.766 1585.74 238.811 1586.61 238.955C1592.09 239.799 1594.98 244.055 1594.98 249.437C1594.98 253.903 1592.98 257.593 1589.15 259.191L1595.68 272.613H1590.89L1584.82 260.106H1574.93V272.613H1570.74V238.766ZM1583.98 256.135C1584.56 256.135 1585.39 256.09 1586.09 255.923C1589.33 255.197 1590.7 252.257 1590.7 249.437C1590.7 246.617 1589.33 243.677 1586.09 242.95C1585.39 242.785 1584.56 242.738 1583.98 242.738H1574.93V256.134H1583.98V256.135ZM1602.36 238.766H1623.75V242.738H1606.54V253.337H1620.93V257.309H1606.54V268.639H1623.75V272.611H1602.36V238.766ZM1628.42 263.234L1632.74 262.553C1633.83 266.831 1637.56 269.345 1642.29 269.345C1646.82 269.345 1650.42 267.089 1650.42 263.399C1650.42 260.437 1648.12 259.17 1645.7 258.441L1637.07 255.878C1633.31 254.774 1629.74 252.586 1629.74 247.581C1629.74 241.586 1634.84 238.061 1641.58 238.083C1648.4 238.131 1653.29 241.821 1654.53 247.981L1650.09 248.755C1649.39 244.641 1645.84 242.103 1641.53 242.055C1637.37 242.01 1634.15 244.266 1634.15 247.391C1634.15 250.517 1637.28 251.598 1639.8 252.305L1646.23 254.161C1649.17 254.985 1654.74 256.651 1654.74 263.163C1654.74 269.721 1649.1 273.317 1642.07 273.317C1634.88 273.317 1629.55 269.462 1628.42 263.233L1628.42 263.234ZM1659.7 255.689C1659.7 245.253 1665.36 238.061 1675.49 238.061C1685.63 238.061 1691.29 245.254 1691.29 255.689C1691.29 266.123 1685.63 273.317 1675.49 273.317C1665.36 273.317 1659.7 266.123 1659.7 255.689ZM1675.49 269.322C1683.06 269.37 1686.85 263.799 1686.85 255.689C1686.85 247.578 1683.06 242.103 1675.49 242.055C1667.92 242.01 1664.19 247.581 1664.14 255.689C1664.09 263.799 1667.93 269.277 1675.49 269.322ZM1698.1 238.766H1717.85V242.95H1702.29V253.598H1715.03V257.782H1702.29V272.614H1698.1V238.767V238.766ZM1733.75 242.739H1722.21V238.767H1749.48V242.739H1737.94V272.614H1733.75V242.739ZM1767.33 238.766H1780.51C1786.58 238.766 1790.13 242.973 1790.13 247.674C1790.13 250.777 1788.69 253.337 1786.34 254.701C1789.77 256.159 1791.75 259.167 1791.75 262.929C1791.75 268.851 1787.89 272.613 1781.69 272.613H1767.33V238.766H1767.33ZM1780.47 252.891C1783.45 252.891 1785.83 250.846 1785.83 247.674C1785.83 244.759 1783.64 242.715 1780.47 242.715H1771.56V252.891H1780.47ZM1780.89 268.618C1784.63 268.618 1787.45 266.479 1787.45 262.905C1787.45 259.498 1784.96 256.842 1781.36 256.842H1771.56V268.619H1780.89L1780.89 268.618ZM1798.46 238.766H1811.83C1812.49 238.766 1813.45 238.811 1814.32 238.955C1819.8 239.799 1822.69 244.055 1822.69 249.437C1822.69 253.903 1820.69 257.593 1816.86 259.191L1823.4 272.613H1818.6L1812.54 260.106H1802.64V272.613H1798.46V238.766ZM1811.69 256.135C1812.28 256.135 1813.1 256.09 1813.81 255.923C1817.05 255.197 1818.41 252.257 1818.41 249.437C1818.41 246.617 1817.05 243.677 1813.81 242.95C1813.1 242.785 1812.28 242.738 1811.69 242.738H1802.64V256.134H1811.69V256.135ZM1839.8 238.766H1845.63L1856.96 272.613H1852.61L1849.93 264.691H1835.47L1832.81 272.613H1828.47L1839.8 238.766ZM1848.61 260.767L1842.67 243.162L1836.79 260.767H1848.61ZM1862.74 238.766H1866.97L1884.62 265.209V238.766H1888.85V272.613H1884.62L1866.97 246.145V272.613H1862.74V238.766ZM1897.27 238.766H1907.71C1908.37 238.766 1910.39 238.766 1911.99 238.978C1919.81 240.01 1923.88 247.063 1923.88 255.689C1923.88 264.314 1919.81 271.367 1911.99 272.402C1910.41 272.614 1908.34 272.614 1907.71 272.614H1897.27V238.767V238.766ZM1907.71 268.618C1908.88 268.618 1910.53 268.57 1911.63 268.358C1917.18 267.349 1919.44 261.966 1919.44 255.689C1919.44 249.297 1917.11 244.009 1911.63 243.019C1910.53 242.807 1908.84 242.762 1907.71 242.762H1901.57V268.618H1907.71Z" fill="white"/>
</g>
<defs>
<clipPath id="clip0_248130_1165">
<rect width="1924" height="274" fill="white"/>
</clipPath>
</defs>
</svg>
