<?xml version="1.0" encoding="UTF-8"?>
<svg xmlns="http://www.w3.org/2000/svg" width="1800px" height="348px"
     viewBox="0 0 1798 348" version="1.1">
  <g id="surface1">
    <path style=" stroke:none;fill-rule:nonzero;fill:rgb(100%,100%,100%);fill-opacity:1;"
          d="M 240.34375 182.152344 L 265.992188 178.25 C 270.300781 195.800781 285.175781 205.757812 303.027344 205.757812 C 318.828125 205.757812 333.601562 198.160156 333.601562 184.507812 C 333.601562 176.296875 328.371094 170.859375 317.1875 167.472656 L 279.019531 156.179688 C 265.890625 152.382812 246.089844 144.480469 246.089844 118.40625 C 246.089844 89.871094 269.992188 74.988281 300.054688 75.191406 C 330.421875 75.5 351.761719 91 358.328125 118.40625 L 331.753906 123.027344 C 328.574219 107.425781 314.929688 98.699219 299.746094 98.289062 C 284.972656 97.980469 272.042969 105.679688 272.042969 117.175781 C 272.042969 128.160156 283.429688 132.164062 293.386719 134.832031 L 319.855469 142.222656 C 334.21875 146.121094 359.457031 153.511719 359.457031 182.867188 C 359.457031 213.5625 331.859375 228.957031 301.488281 228.957031 C 269.171875 228.957031 244.957031 211.199219 240.339844 182.152344 Z M 240.34375 182.152344 " />
    <path style=" stroke:none;fill-rule:nonzero;fill:rgb(100%,100%,100%);fill-opacity:1;"
          d="M 412.566406 225.054688 L 367.730469 115.019531 L 393.480469 115.019531 L 424.464844 194.363281 L 454.527344 115.019531 L 479.253906 115.019531 L 417.488281 275.148438 L 394.300781 275.148438 L 412.5625 225.054688 Z M 412.566406 225.054688 " />
    <path style=" stroke:none;fill-rule:nonzero;fill:rgb(100%,100%,100%);fill-opacity:1;"
          d="M 482.375 193.75 L 507.613281 189.847656 C 510.078125 200.828125 519.515625 207.503906 533.058594 207.503906 C 544.855469 207.503906 551.730469 202.472656 551.730469 194.261719 C 551.730469 186.769531 548.550781 184.921875 523.515625 178.25 C 495.710938 170.960938 485.96875 162.648438 485.96875 146.019531 C 485.96875 125.285156 503.203125 111.941406 529.570312 111.941406 C 555.425781 111.941406 573.480469 124.773438 576.25 144.683594 L 551.011719 149.199219 C 549.679688 139.757812 541.984375 134.113281 529.980469 133.394531 C 518.386719 132.882812 510.589844 137.394531 510.589844 144.785156 C 510.589844 151.253906 514.898438 153.71875 540.855469 160.285156 C 567.429688 167.164062 577.074219 175.886719 577.074219 193.132812 C 577.074219 215.40625 559.835938 228.957031 531.316406 228.957031 C 503.921875 228.957031 486.070312 216.125 482.378906 193.75 Z M 482.375 193.75 " />
    <path style=" stroke:none;fill-rule:nonzero;fill:rgb(100%,100%,100%);fill-opacity:1;"
          d="M 589.324219 170.445312 C 589.429688 136.472656 610.253906 111.9375 643.90625 111.9375 C 669.042969 111.9375 687.714844 125.488281 692.949219 147.351562 L 668.324219 154.023438 C 664.527344 142.117188 654.882812 135.136719 643.597656 135.136719 C 624.207031 135.136719 615.589844 150.125 615.488281 170.445312 C 615.589844 191.59375 625.03125 205.757812 643.597656 205.757812 C 656.730469 205.757812 663.914062 199.601562 667.710938 188.207031 L 692.949219 193.851562 C 686.074219 216.433594 668.324219 228.957031 643.597656 228.957031 C 609.332031 228.957031 589.429688 203.910156 589.324219 170.449219 Z M 589.324219 170.445312 " />
    <path style=" stroke:none;fill-rule:nonzero;fill:rgb(100%,100%,100%);fill-opacity:1;"
          d="M 703.332031 170.445312 C 703.332031 135.652344 725.699219 111.9375 758.425781 111.9375 C 791.875 111.9375 813.726562 136.164062 813.726562 170.445312 C 813.726562 205.039062 791.566406 228.957031 758.425781 228.957031 C 725.085938 228.957031 703.332031 204.730469 703.332031 170.445312 Z M 758.425781 205.757812 C 778.023438 205.757812 787.566406 191.285156 787.566406 170.445312 C 787.566406 148.992188 777.820312 135.136719 758.425781 135.136719 C 738.523438 135.136719 729.496094 149.507812 729.496094 170.445312 C 729.496094 192.003906 739.347656 205.757812 758.425781 205.757812 Z M 758.425781 205.757812 " />
    <path style=" stroke:none;fill-rule:nonzero;fill:rgb(100%,100%,100%);fill-opacity:1;"
          d="M 882.945312 135.136719 C 870.324219 135.136719 856.988281 142.015625 856.988281 168.90625 L 856.988281 225.878906 L 831.953125 225.878906 L 831.953125 115.019531 L 854.011719 115.019531 L 854.011719 127.335938 C 862.117188 117.789062 874.222656 111.835938 890.230469 111.835938 C 931.0625 111.835938 933.832031 150.84375 933.832031 163.980469 L 933.832031 225.878906 L 908.800781 225.878906 L 908.800781 172.5 C 908.800781 158.847656 906.542969 135.136719 882.945312 135.136719 Z M 882.945312 135.136719 " />
    <path style=" stroke:none;fill-rule:nonzero;fill:rgb(100%,100%,100%);fill-opacity:1;"
          d="M 949.453125 193.75 L 974.691406 189.847656 C 977.152344 200.828125 986.589844 207.503906 1000.132812 207.503906 C 1011.933594 207.503906 1018.808594 202.472656 1018.808594 194.261719 C 1018.808594 186.769531 1015.625 184.921875 990.59375 178.25 C 962.789062 170.960938 953.042969 162.648438 953.042969 146.019531 C 953.042969 125.285156 970.28125 111.941406 996.644531 111.941406 C 1022.5 111.941406 1040.558594 124.773438 1043.328125 144.683594 L 1018.089844 149.199219 C 1016.753906 139.757812 1009.0625 134.113281 997.054688 133.394531 C 985.464844 132.882812 977.667969 137.394531 977.667969 144.785156 C 977.667969 151.253906 981.976562 153.71875 1007.933594 160.285156 C 1034.503906 167.164062 1044.148438 175.886719 1044.148438 193.132812 C 1044.148438 215.40625 1026.914062 228.957031 998.390625 228.957031 C 970.996094 228.957031 953.148438 216.125 949.453125 193.75 Z M 949.453125 193.75 " />
    <path style=" stroke:none;fill-rule:nonzero;fill:rgb(100%,100%,100%);fill-opacity:1;"
          d="M 1107.761719 78.066406 L 1196.714844 78.066406 L 1196.714844 102.804688 L 1132.492188 102.804688 L 1132.492188 139.65625 L 1184.402344 139.65625 L 1184.402344 164.289062 L 1132.492188 164.289062 L 1132.492188 225.878906 L 1107.761719 225.878906 Z M 1107.761719 78.066406 " />
    <path style=" stroke:none;fill-rule:nonzero;fill:rgb(100%,100%,100%);fill-opacity:1;"
          d="M 1201.683594 176.914062 L 1201.683594 115.019531 L 1226.71875 115.019531 L 1226.71875 168.394531 C 1226.71875 182.046875 1228.976562 205.757812 1252.574219 205.757812 C 1265.191406 205.757812 1278.53125 198.882812 1278.53125 171.988281 L 1278.53125 115.019531 L 1303.359375 115.019531 L 1303.359375 225.878906 L 1281.503906 225.878906 L 1281.503906 213.558594 C 1273.398438 223.105469 1261.292969 229.058594 1245.289062 229.058594 C 1204.453125 229.058594 1201.683594 190.050781 1201.683594 176.914062 Z M 1201.683594 176.914062 " />
    <path style=" stroke:none;fill-rule:nonzero;fill:rgb(100%,100%,100%);fill-opacity:1;"
          d="M 1340.460938 212.226562 C 1335.332031 202.679688 1336.257812 193.339844 1336.257812 180.609375 L 1336.257812 134.417969 L 1316.148438 134.417969 L 1316.148438 115.019531 L 1336.257812 115.019531 L 1336.257812 84.226562 L 1360.878906 84.226562 L 1360.878906 115.019531 L 1393.402344 115.019531 L 1393.402344 134.417969 L 1360.878906 134.417969 L 1360.878906 179.171875 C 1360.878906 188 1360.46875 194.878906 1363.136719 199.085938 C 1368.0625 207.296875 1379.554688 207.195312 1393.402344 205.144531 L 1393.402344 225.878906 C 1371.449219 230.085938 1349.082031 228.136719 1340.464844 212.226562 Z M 1340.460938 212.226562 " />
    <path style=" stroke:none;fill-rule:nonzero;fill:rgb(100%,100%,100%);fill-opacity:1;"
          d="M 1408.527344 176.914062 L 1408.527344 115.019531 L 1433.5625 115.019531 L 1433.5625 168.394531 C 1433.5625 182.046875 1435.816406 205.757812 1459.414062 205.757812 C 1472.035156 205.757812 1485.375 198.882812 1485.375 171.988281 L 1485.375 115.019531 L 1510.199219 115.019531 L 1510.199219 225.878906 L 1488.347656 225.878906 L 1488.347656 213.558594 C 1480.242188 223.105469 1468.136719 229.058594 1452.128906 229.058594 C 1411.296875 229.058594 1408.527344 190.050781 1408.527344 176.914062 Z M 1408.527344 176.914062 " />
    <path style=" stroke:none;fill-rule:nonzero;fill:rgb(100%,100%,100%);fill-opacity:1;"
          d="M 1534.5 115.019531 L 1556.355469 115.019531 L 1556.355469 132.777344 C 1559.121094 127.953125 1562.816406 123.742188 1567.433594 120.871094 C 1575.640625 115.222656 1586.925781 113.480469 1596.878906 115.019531 L 1596.878906 138.117188 C 1590.207031 136.269531 1580.875 136.78125 1574 140.785156 C 1563.84375 146.328125 1559.328125 156.695312 1559.328125 169.523438 L 1559.328125 225.878906 L 1534.5 225.878906 Z M 1534.5 115.019531 " />
    <path style=" stroke:none;fill-rule:nonzero;fill:rgb(100%,100%,100%);fill-opacity:1;"
          d="M 1605.398438 195.492188 C 1605.398438 179.378906 1613.089844 168.394531 1630.636719 162.339844 C 1642.332031 158.542969 1659.464844 156.179688 1678.855469 153.304688 C 1677.929688 140.578125 1671.261719 134.625 1656.183594 134.625 C 1646.230469 134.625 1635.664062 138.832031 1631.96875 150.125 L 1609.398438 143.039062 C 1614.835938 124.359375 1630.121094 111.9375 1656.183594 111.9375 C 1675.878906 111.9375 1691.578125 117.890625 1698.863281 132.570312 C 1702.761719 140.371094 1703.066406 148.273438 1703.066406 157.820312 L 1703.066406 225.875 L 1681.421875 225.875 L 1681.421875 210.992188 C 1671.980469 223.308594 1660.183594 228.957031 1642.535156 228.957031 C 1618.425781 228.957031 1605.398438 213.761719 1605.398438 195.492188 Z M 1647.460938 209.25 C 1664.289062 209.25 1673.621094 198.574219 1676.085938 190.875 C 1678.136719 185.84375 1678.445312 178.761719 1678.546875 173.628906 C 1660.902344 176.402344 1650.847656 177.941406 1643.050781 180.609375 C 1634.535156 183.792969 1629.609375 188 1629.609375 195.183594 C 1629.609375 203.292969 1635.765625 209.25 1647.460938 209.25 Z M 1647.460938 209.25 " />
    <path style=" stroke:none;fill-rule:nonzero;fill:rgb(99.215686%,76.47059%,2.352941%);fill-opacity:1;"
          d="M 153.394531 151.230469 L 94.742188 209.914062 L 127.671875 242.859375 L 186.324219 184.175781 L 186.324219 118.285156 L 127.671875 59.597656 L 94.742188 92.542969 Z M 153.394531 151.230469 " />
    <path style=" stroke:none;fill-rule:nonzero;fill:rgb(100%,100%,100%);fill-opacity:1;"
          d="M 1278.371094 259.132812 L 1283.246094 259.132812 L 1292.71875 287.445312 L 1289.082031 287.445312 L 1286.84375 280.820312 L 1274.753906 280.820312 L 1272.535156 287.445312 L 1268.898438 287.445312 Z M 1285.742188 277.535156 L 1280.769531 262.808594 L 1275.855469 277.535156 Z M 1285.742188 277.535156 " />
    <path style=" stroke:none;fill-rule:nonzero;fill:rgb(100%,100%,100%);fill-opacity:1;"
          d="M 1297.554688 259.132812 L 1301.089844 259.132812 L 1315.851562 281.25 L 1315.851562 259.132812 L 1319.386719 259.132812 L 1319.386719 287.445312 L 1315.851562 287.445312 L 1301.089844 265.304688 L 1301.089844 287.445312 L 1297.554688 287.445312 Z M 1297.554688 259.132812 " />
    <path style=" stroke:none;fill-rule:nonzero;fill:rgb(100%,100%,100%);fill-opacity:1;"
          d="M 1337.066406 259.132812 L 1340.5625 259.132812 L 1340.5625 287.445312 L 1337.066406 287.445312 Z M 1337.066406 259.132812 " />
    <path style=" stroke:none;fill-rule:nonzero;fill:rgb(100%,100%,100%);fill-opacity:1;"
          d="M 1347.746094 259.132812 L 1350.929688 259.132812 L 1361.621094 281.683594 L 1372.253906 259.132812 L 1375.476562 259.132812 L 1375.476562 287.425781 L 1372.15625 287.425781 L 1372.15625 266.816406 L 1362.546875 287.445312 L 1360.679688 287.445312 L 1351.066406 266.816406 L 1351.066406 287.445312 L 1347.746094 287.445312 Z M 1347.746094 259.132812 " />
    <path style=" stroke:none;fill-rule:nonzero;fill:rgb(100%,100%,100%);fill-opacity:1;"
          d="M 1382.535156 259.132812 L 1393.71875 259.132812 C 1394.269531 259.132812 1395.074219 259.167969 1395.800781 259.289062 C 1400.382812 259.996094 1402.796875 263.554688 1402.796875 268.058594 C 1402.796875 272.558594 1400.359375 276.121094 1395.800781 276.828125 C 1395.074219 276.945312 1394.25 276.984375 1393.71875 276.984375 L 1386.035156 276.984375 L 1386.035156 287.445312 L 1382.535156 287.445312 Z M 1393.601562 273.660156 C 1394.089844 273.660156 1394.777344 273.625 1395.367188 273.484375 C 1398.078125 272.875 1399.21875 270.417969 1399.21875 268.058594 C 1399.21875 265.699219 1398.078125 263.238281 1395.367188 262.632812 C 1394.777344 262.492188 1394.089844 262.453125 1393.601562 262.453125 L 1386.03125 262.453125 L 1386.03125 273.660156 Z M 1393.601562 273.660156 " />
    <path style=" stroke:none;fill-rule:nonzero;fill:rgb(100%,100%,100%);fill-opacity:1;"
          d="M 1407.816406 259.132812 L 1419 259.132812 C 1419.546875 259.132812 1420.355469 259.167969 1421.082031 259.289062 C 1425.664062 259.996094 1428.078125 263.554688 1428.078125 268.058594 C 1428.078125 271.792969 1426.40625 274.878906 1423.207031 276.21875 L 1428.667969 287.445312 L 1424.660156 287.445312 L 1419.589844 276.984375 L 1411.3125 276.984375 L 1411.3125 287.445312 L 1407.816406 287.445312 Z M 1418.882812 273.660156 C 1419.375 273.660156 1420.058594 273.625 1420.648438 273.484375 C 1423.359375 272.875 1424.5 270.417969 1424.5 268.058594 C 1424.5 265.699219 1423.359375 263.238281 1420.648438 262.632812 C 1420.058594 262.492188 1419.375 262.453125 1418.882812 262.453125 L 1411.3125 262.453125 L 1411.3125 273.660156 Z M 1418.882812 273.660156 " />
    <path style=" stroke:none;fill-rule:nonzero;fill:rgb(100%,100%,100%);fill-opacity:1;"
          d="M 1434.25 259.132812 L 1452.132812 259.132812 L 1452.132812 262.453125 L 1437.75 262.453125 L 1437.75 271.320312 L 1449.777344 271.320312 L 1449.777344 274.644531 L 1437.75 274.644531 L 1437.75 284.121094 L 1452.132812 284.121094 L 1452.132812 287.445312 L 1434.25 287.445312 L 1434.25 259.128906 Z M 1434.25 259.132812 " />
    <path style=" stroke:none;fill-rule:nonzero;fill:rgb(100%,100%,100%);fill-opacity:1;"
          d="M 1456.042969 279.597656 L 1459.65625 279.03125 C 1460.5625 282.609375 1463.6875 284.710938 1467.636719 284.710938 C 1471.429688 284.710938 1474.4375 282.824219 1474.4375 279.738281 C 1474.4375 277.257812 1472.511719 276.199219 1470.488281 275.589844 L 1463.277344 273.445312 C 1460.128906 272.523438 1457.144531 270.691406 1457.144531 266.503906 C 1457.144531 261.488281 1461.40625 258.539062 1467.046875 258.558594 C 1472.746094 258.601562 1476.835938 261.6875 1477.875 266.839844 L 1474.160156 267.488281 C 1473.570312 264.046875 1470.605469 261.921875 1467.007812 261.882812 C 1463.527344 261.84375 1460.835938 263.730469 1460.835938 266.347656 C 1460.835938 268.960938 1463.449219 269.867188 1465.554688 270.457031 L 1470.9375 272.007812 C 1473.394531 272.699219 1478.050781 274.09375 1478.050781 279.539062 C 1478.050781 285.027344 1473.335938 288.035156 1467.460938 288.035156 C 1461.445312 288.035156 1456.984375 284.808594 1456.042969 279.597656 Z M 1456.042969 279.597656 " />
    <path style=" stroke:none;fill-rule:nonzero;fill:rgb(100%,100%,100%);fill-opacity:1;"
          d="M 1482.195312 273.289062 C 1482.195312 264.558594 1486.933594 258.539062 1495.402344 258.539062 C 1503.871094 258.539062 1508.609375 264.558594 1508.609375 273.289062 C 1508.609375 282.015625 1503.875 288.035156 1495.402344 288.035156 C 1486.929688 288.035156 1482.195312 282.015625 1482.195312 273.289062 Z M 1495.402344 284.691406 C 1501.730469 284.730469 1504.894531 280.074219 1504.894531 273.289062 C 1504.894531 266.503906 1501.730469 261.921875 1495.402344 261.882812 C 1489.074219 261.84375 1485.949219 266.503906 1485.910156 273.289062 C 1485.871094 280.074219 1489.074219 284.652344 1495.402344 284.691406 Z M 1495.402344 284.691406 " />
    <path style=" stroke:none;fill-rule:nonzero;fill:rgb(100%,100%,100%);fill-opacity:1;"
          d="M 1514.308594 259.132812 L 1530.816406 259.132812 L 1530.816406 262.632812 L 1517.804688 262.632812 L 1517.804688 271.539062 L 1528.457031 271.539062 L 1528.457031 275.039062 L 1517.804688 275.039062 L 1517.804688 287.445312 L 1514.308594 287.445312 Z M 1514.308594 259.132812 " />
    <path style=" stroke:none;fill-rule:nonzero;fill:rgb(100%,100%,100%);fill-opacity:1;"
          d="M 1544.113281 262.453125 L 1534.464844 262.453125 L 1534.464844 259.132812 L 1557.261719 259.132812 L 1557.261719 262.453125 L 1547.613281 262.453125 L 1547.613281 287.445312 L 1544.113281 287.445312 Z M 1544.113281 262.453125 " />
    <path style=" stroke:none;fill-rule:nonzero;fill:rgb(100%,100%,100%);fill-opacity:1;"
          d="M 1572.1875 259.132812 L 1583.210938 259.132812 C 1588.28125 259.132812 1591.25 262.648438 1591.25 266.582031 C 1591.25 269.179688 1590.050781 271.320312 1588.085938 272.460938 C 1590.953125 273.679688 1592.605469 276.199219 1592.605469 279.34375 C 1592.605469 284.296875 1589.382812 287.445312 1584.195312 287.445312 L 1572.183594 287.445312 L 1572.183594 259.132812 Z M 1583.171875 270.949219 C 1585.667969 270.949219 1587.65625 269.238281 1587.65625 266.582031 C 1587.65625 264.144531 1585.828125 262.433594 1583.171875 262.433594 L 1575.726562 262.433594 L 1575.726562 270.949219 Z M 1583.527344 284.101562 C 1586.652344 284.101562 1589.011719 282.3125 1589.011719 279.324219 C 1589.011719 276.472656 1586.925781 274.253906 1583.917969 274.253906 L 1575.722656 274.253906 L 1575.722656 284.105469 L 1583.527344 284.105469 Z M 1583.527344 284.101562 " />
    <path style=" stroke:none;fill-rule:nonzero;fill:rgb(100%,100%,100%);fill-opacity:1;"
          d="M 1598.214844 259.132812 L 1609.398438 259.132812 C 1609.945312 259.132812 1610.753906 259.167969 1611.480469 259.289062 C 1616.058594 259.996094 1618.476562 263.554688 1618.476562 268.058594 C 1618.476562 271.792969 1616.804688 274.878906 1613.601562 276.21875 L 1619.066406 287.445312 L 1615.058594 287.445312 L 1609.988281 276.984375 L 1601.710938 276.984375 L 1601.710938 287.445312 L 1598.214844 287.445312 Z M 1609.28125 273.660156 C 1609.773438 273.660156 1610.457031 273.625 1611.046875 273.484375 C 1613.757812 272.875 1614.898438 270.417969 1614.898438 268.058594 C 1614.898438 265.699219 1613.757812 263.238281 1611.046875 262.632812 C 1610.457031 262.492188 1609.773438 262.453125 1609.28125 262.453125 L 1601.710938 262.453125 L 1601.710938 273.660156 Z M 1609.28125 273.660156 " />
    <path style=" stroke:none;fill-rule:nonzero;fill:rgb(100%,100%,100%);fill-opacity:1;"
          d="M 1632.78125 259.132812 L 1637.652344 259.132812 L 1647.125 287.445312 L 1643.492188 287.445312 L 1641.25 280.820312 L 1629.164062 280.820312 L 1626.941406 287.445312 L 1623.304688 287.445312 L 1632.777344 259.132812 Z M 1640.148438 277.535156 L 1635.179688 262.808594 L 1630.265625 277.535156 Z M 1640.148438 277.535156 " />
    <path style=" stroke:none;fill-rule:nonzero;fill:rgb(100%,100%,100%);fill-opacity:1;"
          d="M 1651.960938 259.132812 L 1655.5 259.132812 L 1670.257812 281.25 L 1670.257812 259.132812 L 1673.796875 259.132812 L 1673.796875 287.445312 L 1670.257812 287.445312 L 1655.5 265.304688 L 1655.5 287.445312 L 1651.960938 287.445312 Z M 1651.960938 259.132812 " />
    <path style=" stroke:none;fill-rule:nonzero;fill:rgb(100%,100%,100%);fill-opacity:1;"
          d="M 1680.835938 259.132812 L 1689.5625 259.132812 C 1690.113281 259.132812 1691.800781 259.132812 1693.136719 259.308594 C 1699.683594 260.171875 1703.082031 266.070312 1703.082031 273.289062 C 1703.082031 280.503906 1699.683594 286.402344 1693.136719 287.269531 C 1691.820312 287.445312 1690.089844 287.445312 1689.5625 287.445312 L 1680.835938 287.445312 Z M 1689.558594 284.101562 C 1690.542969 284.101562 1691.917969 284.0625 1692.84375 283.886719 C 1697.480469 283.042969 1699.367188 278.539062 1699.367188 273.289062 C 1699.367188 267.941406 1697.421875 263.515625 1692.84375 262.6875 C 1691.917969 262.511719 1690.503906 262.472656 1689.558594 262.472656 L 1684.429688 262.472656 L 1684.429688 284.101562 Z M 1689.558594 284.101562 " />
  </g>
</svg>
